<?xml version="1.0" encoding="UTF-8" standalone="no"?>
<!DOCTYPE svg PUBLIC "-//W3C//DTD SVG 1.1//EN"
 "http://www.w3.org/Graphics/SVG/1.1/DTD/svg11.dtd">
<!-- Generated by graphviz version 10.0.1 (20240210.2158)
 -->
<!-- Pages: 1 -->
<svg width="415pt" height="189pt"
 viewBox="0.00 0.00 415.00 189.48" xmlns="http://www.w3.org/2000/svg" xmlns:xlink="http://www.w3.org/1999/xlink">
<g id="graph0" class="graph" transform="scale(1 1) rotate(0) translate(4 185.48)">
<polygon fill="white" stroke="none" points="-4,4 -4,-185.48 411,-185.48 411,4 -4,4"/>
<!-- &#45;1 -->
<g id="node1" class="node">
<title>&#45;1</title>
<polygon fill="lightgray" stroke="black" points="208.5,-181.48 185,-181.48 185,-162.98 208.5,-162.98 208.5,-181.48"/>
<text text-anchor="middle" x="196.75" y="-168.93" font-family="Times,serif" font-size="9.00">&#45;1</text>
</g>
<!-- 5 -->
<g id="node8" class="node">
<title>5</title>
<ellipse fill="white" stroke="black" cx="97.75" cy="-95.99" rx="14.5" ry="14.5"/>
<text text-anchor="middle" x="97.75" y="-92.69" font-family="Times,serif" font-size="9.00">5</text>
</g>
<!-- &#45;1&#45;&gt;5 -->
<g id="edge1" class="edge">
<title>&#45;1&#45;&gt;5</title>
<path fill="none" stroke="green" stroke-width="0.41" d="M184.73,-170.83C166.69,-169.56 132.65,-164.55 113,-144.98 106.55,-138.56 102.83,-129.43 100.68,-120.85"/>
<polygon fill="green" stroke="green" stroke-width="0.41" points="104.14,-120.3 98.82,-111.13 97.26,-121.61 104.14,-120.3"/>
<text text-anchor="middle" x="129.12" y="-131.68" font-family="Times,serif" font-size="14.00">1.533</text>
</g>
<!-- 6 -->
<g id="node9" class="node">
<title>6</title>
<ellipse fill="white" stroke="black" cx="236.75" cy="-95.99" rx="14.5" ry="14.5"/>
<text text-anchor="middle" x="236.75" y="-92.69" font-family="Times,serif" font-size="9.00">6</text>
</g>
<!-- &#45;1&#45;&gt;6 -->
<g id="edge2" class="edge">
<title>&#45;1&#45;&gt;6</title>
<path fill="none" stroke="green" stroke-width="0.27" d="M209,-170.09C223.89,-167.96 248.45,-161.94 259.75,-144.98 266.11,-135.45 260.91,-123.89 253.85,-114.5"/>
<polygon fill="green" stroke="green" stroke-width="0.27" points="256.55,-112.26 247.4,-106.92 251.22,-116.8 256.55,-112.26"/>
<text text-anchor="middle" x="277.12" y="-131.68" font-family="Times,serif" font-size="14.00">0.846</text>
</g>
<!-- &#45;2 -->
<g id="node2" class="node">
<title>&#45;2</title>
<polygon fill="lightgray" stroke="black" points="73.5,-181.48 50,-181.48 50,-162.98 73.5,-162.98 73.5,-181.48"/>
<text text-anchor="middle" x="61.75" y="-168.93" font-family="Times,serif" font-size="9.00">&#45;2</text>
</g>
<!-- &#45;2&#45;&gt;5 -->
<g id="edge3" class="edge">
<title>&#45;2&#45;&gt;5</title>
<path fill="none" stroke="red" stroke-width="0.18" d="M57.3,-162.57C53.34,-153.58 48.97,-139.35 54.5,-128.48 59.03,-119.58 67.38,-112.6 75.55,-107.5"/>
<polygon fill="red" stroke="red" stroke-width="0.18" points="77.2,-110.59 84.24,-102.67 73.8,-104.47 77.2,-110.59"/>
<text text-anchor="middle" x="72.38" y="-131.68" font-family="Times,serif" font-size="14.00">&#45;0.417</text>
</g>
<!-- &#45;2&#45;&gt;6 -->
<g id="edge4" class="edge">
<title>&#45;2&#45;&gt;6</title>
<path fill="none" stroke="red" stroke-width="0.32" d="M73.68,-171.83C99.24,-172.53 160.34,-171.12 201.75,-144.98 211.82,-138.63 219.93,-128.23 225.8,-118.74"/>
<polygon fill="red" stroke="red" stroke-width="0.32" points="228.78,-120.59 230.66,-110.16 222.69,-117.13 228.78,-120.59"/>
<text text-anchor="middle" x="236.38" y="-131.68" font-family="Times,serif" font-size="14.00">&#45;1.108</text>
</g>
<!-- &#45;3 -->
<g id="node3" class="node">
<title>&#45;3</title>
<polygon fill="lightgray" stroke="black" points="23.5,-181.48 0,-181.48 0,-162.98 23.5,-162.98 23.5,-181.48"/>
<text text-anchor="middle" x="11.75" y="-168.93" font-family="Times,serif" font-size="9.00">&#45;3</text>
</g>
<!-- &#45;3&#45;&gt;5 -->
<g id="edge5" class="edge">
<title>&#45;3&#45;&gt;5</title>
<path fill="none" stroke="red" stroke-width="0.2" d="M9.56,-162.8C7.68,-153.48 6.27,-138.47 13.5,-128.48 27.1,-109.7 53.28,-102.11 72.86,-99.05"/>
<polygon fill="red" stroke="red" stroke-width="0.2" points="73.15,-102.54 82.63,-97.81 72.27,-95.6 73.15,-102.54"/>
<text text-anchor="middle" x="31.38" y="-131.68" font-family="Times,serif" font-size="14.00">&#45;0.510</text>
</g>
<!-- &#45;3&#45;&gt;6 -->
<g id="edge6" class="edge">
<title>&#45;3&#45;&gt;6</title>
<path fill="none" stroke="red" stroke-width="0.25" d="M23.81,-167.5C28.99,-165.97 35.14,-164.27 40.75,-162.98 86.05,-152.61 101.85,-165.08 143.75,-144.98 153.76,-140.18 153.1,-134.39 162.5,-128.48 178.49,-118.43 198.24,-110.23 213.35,-104.71"/>
<polygon fill="red" stroke="red" stroke-width="0.25" points="214.33,-108.08 222.61,-101.47 212.01,-101.48 214.33,-108.08"/>
<text text-anchor="middle" x="180.38" y="-131.68" font-family="Times,serif" font-size="14.00">&#45;0.761</text>
</g>
<!-- &#45;4 -->
<g id="node4" class="node">
<title>&#45;4</title>
<polygon fill="lightgray" stroke="black" points="374.5,-181.48 351,-181.48 351,-162.98 374.5,-162.98 374.5,-181.48"/>
<text text-anchor="middle" x="362.75" y="-168.93" font-family="Times,serif" font-size="9.00">&#45;4</text>
</g>
<!-- &#45;4&#45;&gt;5 -->
<g id="edge7" class="edge">
<title>&#45;4&#45;&gt;5</title>
<path fill="none" stroke="green" stroke-width="0.19" d="M352.75,-162.81C340.42,-152.91 318.42,-136.79 296.75,-128.48 265.23,-116.41 168.1,-104.63 122.23,-99.57"/>
<polygon fill="green" stroke="green" stroke-width="0.19" points="122.85,-96.12 112.53,-98.52 122.1,-103.08 122.85,-96.12"/>
<text text-anchor="middle" x="342.12" y="-131.68" font-family="Times,serif" font-size="14.00">0.466</text>
</g>
<!-- &#45;4&#45;&gt;6 -->
<g id="edge8" class="edge">
<title>&#45;4&#45;&gt;6</title>
<path fill="none" stroke="red" stroke-width="0.45" d="M367.02,-162.71C371.05,-153.31 375.43,-138.23 367.75,-128.48 354.81,-112.06 296.05,-103.21 261.78,-99.37"/>
<polygon fill="red" stroke="red" stroke-width="0.45" points="262.18,-95.9 251.87,-98.33 261.45,-102.86 262.18,-95.9"/>
<text text-anchor="middle" x="389.38" y="-131.68" font-family="Times,serif" font-size="14.00">&#45;1.726</text>
</g>
<!-- 0 -->
<g id="node5" class="node">
<title>0</title>
<ellipse fill="lightblue" stroke="black" cx="128.75" cy="-14.5" rx="14.5" ry="14.5"/>
<text text-anchor="middle" x="128.75" y="-11.2" font-family="Times,serif" font-size="9.00">0</text>
</g>
<!-- 1 -->
<g id="node6" class="node">
<title>1</title>
<ellipse fill="lightblue" stroke="black" cx="178.75" cy="-14.5" rx="14.5" ry="14.5"/>
<text text-anchor="middle" x="178.75" y="-11.2" font-family="Times,serif" font-size="9.00">1</text>
</g>
<!-- 2 -->
<g id="node7" class="node">
<title>2</title>
<ellipse fill="lightblue" stroke="black" cx="290.75" cy="-14.5" rx="14.5" ry="14.5"/>
<text text-anchor="middle" x="290.75" y="-11.2" font-family="Times,serif" font-size="9.00">2</text>
</g>
<!-- 5&#45;&gt;0 -->
<g id="edge9" class="edge">
<title>5&#45;&gt;0</title>
<path fill="none" stroke="green" stroke-width="0.2" d="M87.12,-86.02C76.91,-76.29 64.13,-60.36 72,-46.99 79.15,-34.85 92.84,-27.06 104.99,-22.26"/>
<polygon fill="green" stroke="green" stroke-width="0.2" points="106.07,-25.59 114.37,-19 103.78,-18.98 106.07,-25.59"/>
<text text-anchor="middle" x="88.12" y="-50.19" font-family="Times,serif" font-size="14.00">0.487</text>
</g>
<!-- 5&#45;&gt;1 -->
<g id="edge10" class="edge">
<title>5&#45;&gt;1</title>
<path fill="none" stroke="red" stroke-width="0.15" d="M103.05,-81.97C107.77,-71.57 115.48,-57.11 125.5,-46.99 130.5,-41.94 144.55,-33.7 156.96,-26.92"/>
<polygon fill="red" stroke="red" stroke-width="0.15" points="158.6,-30.01 165.76,-22.2 155.29,-23.84 158.6,-30.01"/>
<text text-anchor="middle" x="143.38" y="-50.19" font-family="Times,serif" font-size="14.00">&#45;0.256</text>
</g>
<!-- 6&#45;&gt;0 -->
<g id="edge11" class="edge">
<title>6&#45;&gt;0</title>
<path fill="none" stroke="green" stroke-width="0.51" d="M223.58,-88.84C211.71,-83.03 194.03,-73.71 180,-63.49 173.04,-58.42 158.13,-44.31 146.18,-32.69"/>
<polygon fill="green" stroke="green" stroke-width="0.51" points="148.67,-30.23 139.07,-25.73 143.77,-35.23 148.67,-30.23"/>
<text text-anchor="middle" x="196.12" y="-50.19" font-family="Times,serif" font-size="14.00">2.060</text>
</g>
<!-- 6&#45;&gt;1 -->
<g id="edge12" class="edge">
<title>6&#45;&gt;1</title>
<path fill="none" stroke="green" stroke-width="0.16" d="M232.49,-81.96C228.78,-71.82 222.75,-57.72 214.75,-46.99 210.04,-40.68 203.88,-34.72 197.98,-29.72"/>
<polygon fill="green" stroke="green" stroke-width="0.16" points="200.46,-27.21 190.46,-23.69 196.08,-32.68 200.46,-27.21"/>
<text text-anchor="middle" x="239.12" y="-50.19" font-family="Times,serif" font-size="14.00">0.282</text>
</g>
<!-- 6&#45;&gt;2 -->
<g id="edge13" class="edge">
<title>6&#45;&gt;2</title>
<path fill="none" stroke="red" stroke-width="0.21" stroke-dasharray="1,5" d="M247.84,-85.91C254.52,-80.03 262.84,-71.92 268.75,-63.49 274.21,-55.7 278.86,-46.34 282.46,-37.96"/>
<polygon fill="red" stroke="red" stroke-width="0.21" points="285.7,-39.27 286.19,-28.69 279.21,-36.66 285.7,-39.27"/>
<text text-anchor="middle" x="295.38" y="-50.19" font-family="Times,serif" font-size="14.00">&#45;0.545</text>
</g>
</g>
</svg>
