<?xml version="1.0" encoding="UTF-8" standalone="no"?>
<!DOCTYPE svg PUBLIC "-//W3C//DTD SVG 1.1//EN"
 "http://www.w3.org/Graphics/SVG/1.1/DTD/svg11.dtd">
<!-- Generated by graphviz version 10.0.1 (20240210.2158)
 -->
<!-- Pages: 1 -->
<svg width="317pt" height="163pt"
 viewBox="0.00 0.00 317.29 162.85" xmlns="http://www.w3.org/2000/svg" xmlns:xlink="http://www.w3.org/1999/xlink">
<g id="graph0" class="graph" transform="scale(1 1) rotate(0) translate(4 158.85)">
<polygon fill="white" stroke="none" points="-4,4 -4,-158.85 313.29,-158.85 313.29,4 -4,4"/>
<!-- &#45;1 -->
<g id="node1" class="node">
<title>&#45;1</title>
<polygon fill="lightgray" stroke="black" points="178.5,-154.85 155,-154.85 155,-136.35 178.5,-136.35 178.5,-154.85"/>
<text text-anchor="middle" x="166.75" y="-142.3" font-family="Times,serif" font-size="9.00">&#45;1</text>
</g>
<!-- 0 -->
<g id="node4" class="node">
<title>0</title>
<ellipse fill="lightblue" stroke="black" cx="50.75" cy="-14.5" rx="14.5" ry="14.5"/>
<text text-anchor="middle" x="50.75" y="-11.2" font-family="Times,serif" font-size="9.00">0</text>
</g>
<!-- &#45;1&#45;&gt;0 -->
<g id="edge12" class="edge">
<title>&#45;1&#45;&gt;0</title>
<path fill="none" stroke="red" stroke-width="0.22" d="M160.23,-135.96C148.85,-121.05 124.43,-89.7 101.75,-64.99 91.22,-53.51 78.67,-41.32 68.66,-31.91"/>
<polygon fill="red" stroke="red" stroke-width="0.22" points="71.21,-29.5 61.5,-25.25 66.44,-34.62 71.21,-29.5"/>
</g>
<!-- 1 -->
<g id="node5" class="node">
<title>1</title>
<ellipse fill="lightblue" stroke="black" cx="212.75" cy="-14.5" rx="14.5" ry="14.5"/>
<text text-anchor="middle" x="212.75" y="-11.2" font-family="Times,serif" font-size="9.00">1</text>
</g>
<!-- &#45;1&#45;&gt;1 -->
<g id="edge13" class="edge">
<title>&#45;1&#45;&gt;1</title>
<path fill="none" stroke="green" stroke-width="0.35" d="M178.82,-144.94C206.31,-144.98 273.42,-140.73 302.75,-100.35 311.98,-87.63 310.75,-78.52 302.75,-64.99 288.7,-41.22 258.72,-28.1 237.22,-21.44"/>
<polygon fill="green" stroke="green" stroke-width="0.35" points="238.26,-18.1 227.68,-18.74 236.35,-24.83 238.26,-18.1"/>
</g>
<!-- 2 -->
<g id="node6" class="node">
<title>2</title>
<ellipse fill="lightblue" stroke="black" cx="97.75" cy="-14.5" rx="14.5" ry="14.5"/>
<text text-anchor="middle" x="97.75" y="-11.2" font-family="Times,serif" font-size="9.00">2</text>
</g>
<!-- &#45;1&#45;&gt;2 -->
<g id="edge14" class="edge">
<title>&#45;1&#45;&gt;2</title>
<path fill="none" stroke="red" stroke-width="0.1" d="M174.09,-136.17C186.32,-121.05 208.18,-88.67 193.75,-64.99 178.18,-39.44 144.72,-26.51 121.73,-20.4"/>
<polygon fill="red" stroke="red" stroke-width="0.1" points="122.69,-17.03 112.15,-18.08 121.04,-23.83 122.69,-17.03"/>
</g>
<!-- 37 -->
<g id="node7" class="node">
<title>37</title>
<ellipse fill="white" stroke="black" cx="166.75" cy="-82.67" rx="17.68" ry="17.68"/>
<text text-anchor="middle" x="166.75" y="-79.37" font-family="Times,serif" font-size="9.00">37</text>
</g>
<!-- &#45;1&#45;&gt;37 -->
<g id="edge1" class="edge">
<title>&#45;1&#45;&gt;37</title>
<path fill="none" stroke="green" stroke-width="0.16" d="M166.75,-135.87C166.75,-129.17 166.75,-119.56 166.75,-110.4"/>
<polygon fill="green" stroke="green" stroke-width="0.16" points="170.25,-110.68 166.75,-100.68 163.25,-110.68 170.25,-110.68"/>
</g>
<!-- 38 -->
<g id="node8" class="node">
<title>38</title>
<ellipse fill="white" stroke="black" cx="74.75" cy="-82.67" rx="17.68" ry="17.68"/>
<text text-anchor="middle" x="74.75" y="-79.37" font-family="Times,serif" font-size="9.00">38</text>
</g>
<!-- &#45;1&#45;&gt;38 -->
<g id="edge2" class="edge">
<title>&#45;1&#45;&gt;38</title>
<path fill="none" stroke="green" stroke-width="0.47" d="M154.72,-136.63C140.37,-127.13 116.05,-111.02 97.99,-99.06"/>
<polygon fill="green" stroke="green" stroke-width="0.47" points="100.06,-96.23 89.79,-93.63 96.2,-102.07 100.06,-96.23"/>
</g>
<!-- &#45;2 -->
<g id="node2" class="node">
<title>&#45;2</title>
<polygon fill="lightgray" stroke="black" points="86.5,-154.85 63,-154.85 63,-136.35 86.5,-136.35 86.5,-154.85"/>
<text text-anchor="middle" x="74.75" y="-142.3" font-family="Times,serif" font-size="9.00">&#45;2</text>
</g>
<!-- &#45;2&#45;&gt;0 -->
<g id="edge15" class="edge">
<title>&#45;2&#45;&gt;0</title>
<path fill="none" stroke="red" stroke-width="0.13" d="M65.14,-135.85C56.88,-127.62 45.55,-114.47 40.75,-100.35 33.81,-79.92 37.98,-55.31 42.88,-37.87"/>
<polygon fill="red" stroke="red" stroke-width="0.13" points="46.11,-39.28 45.72,-28.7 39.42,-37.22 46.11,-39.28"/>
</g>
<!-- &#45;2&#45;&gt;1 -->
<g id="edge16" class="edge">
<title>&#45;2&#45;&gt;1</title>
<path fill="none" stroke="red" stroke-width="0.54" d="M86.97,-142.92C119.97,-138.13 209.59,-123.21 226.75,-100.35 240.37,-82.19 232.88,-55.68 224.55,-37.14"/>
<polygon fill="red" stroke="red" stroke-width="0.54" points="227.73,-35.69 220.19,-28.25 221.45,-38.77 227.73,-35.69"/>
</g>
<!-- &#45;2&#45;&gt;2 -->
<g id="edge17" class="edge">
<title>&#45;2&#45;&gt;2</title>
<path fill="none" stroke="green" stroke-width="0.28" d="M67.6,-136.13C60.98,-127.68 51.6,-114.04 47.75,-100.35 43.5,-85.22 41.7,-79.49 47.75,-64.99 53.9,-50.26 66.8,-37.67 77.96,-28.87"/>
<polygon fill="green" stroke="green" stroke-width="0.28" points="79.71,-31.93 85.66,-23.17 75.54,-26.31 79.71,-31.93"/>
</g>
<!-- &#45;2&#45;&gt;37 -->
<g id="edge3" class="edge">
<title>&#45;2&#45;&gt;37</title>
<path fill="none" stroke="green" stroke-width="0.3" d="M86.78,-136.63C101.26,-127.04 125.89,-110.73 144,-98.73"/>
<polygon fill="green" stroke="green" stroke-width="0.3" points="145.51,-101.93 151.92,-93.49 141.65,-96.09 145.51,-101.93"/>
</g>
<!-- &#45;2&#45;&gt;38 -->
<g id="edge4" class="edge">
<title>&#45;2&#45;&gt;38</title>
<path fill="none" stroke="red" stroke-width="0.21" d="M74.75,-135.87C74.75,-129.25 74.75,-119.76 74.75,-110.7"/>
<polygon fill="red" stroke="red" stroke-width="0.21" points="78.25,-110.74 74.75,-100.74 71.25,-110.74 78.25,-110.74"/>
</g>
<!-- &#45;3 -->
<g id="node3" class="node">
<title>&#45;3</title>
<polygon fill="lightgray" stroke="black" points="23.5,-154.85 0,-154.85 0,-136.35 23.5,-136.35 23.5,-154.85"/>
<text text-anchor="middle" x="11.75" y="-142.3" font-family="Times,serif" font-size="9.00">&#45;3</text>
</g>
<!-- &#45;3&#45;&gt;0 -->
<g id="edge18" class="edge">
<title>&#45;3&#45;&gt;0</title>
<path fill="none" stroke="red" stroke-width="0.37" d="M13.89,-136.18C17.65,-121.6 25.78,-90.74 33.75,-64.99 36.47,-56.2 39.7,-46.62 42.61,-38.26"/>
<polygon fill="red" stroke="red" stroke-width="0.37" points="45.85,-39.58 45.87,-28.99 39.25,-37.26 45.85,-39.58"/>
</g>
<!-- &#45;3&#45;&gt;1 -->
<g id="edge19" class="edge">
<title>&#45;3&#45;&gt;1</title>
<path fill="none" stroke="red" stroke-width="0.15" d="M23.79,-142.04C63.42,-133.56 187.63,-106.58 193.75,-100.35 209.47,-84.34 213.34,-58.31 213.82,-39.3"/>
<polygon fill="red" stroke="red" stroke-width="0.15" points="217.32,-39.51 213.79,-29.52 210.32,-39.54 217.32,-39.51"/>
</g>
<!-- &#45;3&#45;&gt;2 -->
<g id="edge20" class="edge">
<title>&#45;3&#45;&gt;2</title>
<path fill="none" stroke="red" stroke-width="0.34" d="M13.38,-136.04C16.61,-120.71 24.91,-88.02 40.75,-64.99 50.46,-50.88 65.11,-38.28 77.13,-29.32"/>
<polygon fill="red" stroke="red" stroke-width="0.34" points="79.15,-32.18 85.25,-23.52 75.08,-26.48 79.15,-32.18"/>
</g>
<!-- &#45;3&#45;&gt;38 -->
<g id="edge5" class="edge">
<title>&#45;3&#45;&gt;38</title>
<path fill="none" stroke="red" stroke-width="0.17" d="M20.78,-135.87C29.71,-127.23 43.67,-113.73 55.15,-102.62"/>
<polygon fill="red" stroke="red" stroke-width="0.17" points="57.33,-105.39 62.08,-95.92 52.46,-100.36 57.33,-105.39"/>
</g>
<!-- 37&#45;&gt;0 -->
<g id="edge6" class="edge">
<title>37&#45;&gt;0</title>
<path fill="none" stroke="green" stroke-width="0.37" d="M151.59,-73.02C131.27,-61.43 95.12,-40.81 72.08,-27.66"/>
<polygon fill="green" stroke="green" stroke-width="0.37" points="74,-24.73 63.58,-22.81 70.53,-30.81 74,-24.73"/>
</g>
<!-- 37&#45;&gt;1 -->
<g id="edge7" class="edge">
<title>37&#45;&gt;1</title>
<path fill="none" stroke="red" stroke-width="0.12" d="M176.51,-67.64C183.1,-58.15 191.89,-45.5 199.17,-35.03"/>
<polygon fill="red" stroke="red" stroke-width="0.12" points="201.9,-37.23 204.74,-27.02 196.15,-33.24 201.9,-37.23"/>
</g>
<!-- 37&#45;&gt;2 -->
<g id="edge8" class="edge">
<title>37&#45;&gt;2</title>
<path fill="none" stroke="green" stroke-width="0.5" d="M154.41,-69.84C143.58,-59.45 127.69,-44.21 115.49,-32.51"/>
<polygon fill="green" stroke="green" stroke-width="0.5" points="117.92,-29.99 108.28,-25.6 113.08,-35.05 117.92,-29.99"/>
</g>
<!-- 38&#45;&gt;0 -->
<g id="edge9" class="edge">
<title>38&#45;&gt;0</title>
<path fill="none" stroke="red" stroke-width="0.23" d="M68.94,-65.65C65.96,-57.42 62.27,-47.26 59,-38.24"/>
<polygon fill="red" stroke="red" stroke-width="0.23" points="62.36,-37.23 55.66,-29.03 55.78,-39.62 62.36,-37.23"/>
</g>
<!-- 38&#45;&gt;1 -->
<g id="edge10" class="edge">
<title>38&#45;&gt;1</title>
<path fill="none" stroke="green" stroke-width="0.6" d="M90.58,-74.08C115.06,-62.34 162.21,-39.73 190.23,-26.29"/>
<polygon fill="green" stroke="green" stroke-width="0.6" points="191.62,-29.51 199.13,-22.03 188.6,-23.2 191.62,-29.51"/>
</g>
<!-- 38&#45;&gt;2 -->
<g id="edge11" class="edge">
<title>38&#45;&gt;2</title>
<path fill="none" stroke="red" stroke-width="0.37" d="M80.32,-65.65C83.15,-57.51 86.63,-47.48 89.74,-38.53"/>
<polygon fill="red" stroke="red" stroke-width="0.37" points="93,-39.83 92.98,-29.23 86.39,-37.53 93,-39.83"/>
</g>
</g>
</svg>
