<?xml version="1.0" encoding="UTF-8" standalone="no"?>
<!DOCTYPE svg PUBLIC "-//W3C//DTD SVG 1.1//EN"
 "http://www.w3.org/Graphics/SVG/1.1/DTD/svg11.dtd">
<!-- Generated by graphviz version 10.0.1 (20240210.2158)
 -->
<!-- Pages: 1 -->
<svg width="321pt" height="196pt"
 viewBox="0.00 0.00 320.60 195.85" xmlns="http://www.w3.org/2000/svg" xmlns:xlink="http://www.w3.org/1999/xlink">
<g id="graph0" class="graph" transform="scale(1 1) rotate(0) translate(4 191.85)">
<polygon fill="white" stroke="none" points="-4,4 -4,-191.85 316.6,-191.85 316.6,4 -4,4"/>
<!-- &#45;1 -->
<g id="node1" class="node">
<title>&#45;1</title>
<polygon fill="lightgray" stroke="black" points="138.6,-187.85 115.1,-187.85 115.1,-169.35 138.6,-169.35 138.6,-187.85"/>
<text text-anchor="middle" x="126.85" y="-175.3" font-family="Times,serif" font-size="9.00">&#45;1</text>
</g>
<!-- 15 -->
<g id="node7" class="node">
<title>15</title>
<ellipse fill="white" stroke="black" cx="65.85" cy="-99.17" rx="17.68" ry="17.68"/>
<text text-anchor="middle" x="65.85" y="-95.87" font-family="Times,serif" font-size="9.00">15</text>
</g>
<!-- &#45;1&#45;&gt;15 -->
<g id="edge1" class="edge">
<title>&#45;1&#45;&gt;15</title>
<path fill="none" stroke="red" stroke-width="0.2" d="M115.03,-175.15C102.63,-171.93 83.58,-164.99 73.6,-151.35 68.53,-144.41 66.17,-135.52 65.19,-127.09"/>
<polygon fill="red" stroke="red" stroke-width="0.2" points="68.69,-126.95 64.63,-117.16 61.7,-127.35 68.69,-126.95"/>
<text text-anchor="middle" x="91.48" y="-138.05" font-family="Times,serif" font-size="14.00">&#45;0.501</text>
</g>
<!-- 16 -->
<g id="node8" class="node">
<title>16</title>
<ellipse fill="white" stroke="black" cx="201.85" cy="-99.17" rx="17.68" ry="17.68"/>
<text text-anchor="middle" x="201.85" y="-95.87" font-family="Times,serif" font-size="9.00">16</text>
</g>
<!-- &#45;1&#45;&gt;16 -->
<g id="edge2" class="edge">
<title>&#45;1&#45;&gt;16</title>
<path fill="none" stroke="green" stroke-width="0.3" d="M138.94,-171.33C147.37,-166.58 158.55,-159.49 166.85,-151.35 175.04,-143.32 182.47,-133.11 188.36,-123.93"/>
<polygon fill="green" stroke="green" stroke-width="0.3" points="191.23,-125.94 193.47,-115.59 185.26,-122.29 191.23,-125.94"/>
<text text-anchor="middle" x="195.23" y="-138.05" font-family="Times,serif" font-size="14.00">0.976</text>
</g>
<!-- &#45;2 -->
<g id="node2" class="node">
<title>&#45;2</title>
<polygon fill="lightgray" stroke="black" points="88.6,-187.85 65.1,-187.85 65.1,-169.35 88.6,-169.35 88.6,-187.85"/>
<text text-anchor="middle" x="76.85" y="-175.3" font-family="Times,serif" font-size="9.00">&#45;2</text>
</g>
<!-- &#45;2&#45;&gt;15 -->
<g id="edge3" class="edge">
<title>&#45;2&#45;&gt;15</title>
<path fill="none" stroke="red" stroke-width="0.18" d="M64.68,-176.3C50.16,-174.03 26.49,-167.86 15.6,-151.35 5.5,-136.03 23.67,-121.4 40.91,-111.73"/>
<polygon fill="red" stroke="red" stroke-width="0.18" points="42.2,-115 49.45,-107.27 38.97,-108.8 42.2,-115"/>
<text text-anchor="middle" x="33.48" y="-138.05" font-family="Times,serif" font-size="14.00">&#45;0.394</text>
</g>
<!-- &#45;2&#45;&gt;16 -->
<g id="edge4" class="edge">
<title>&#45;2&#45;&gt;16</title>
<path fill="none" stroke="red" stroke-width="0.34" d="M87.6,-168.94C93.84,-163.86 101.84,-157.3 108.85,-151.35 117.31,-144.16 118.31,-140.92 127.6,-134.85 142.69,-124.97 161.04,-116.38 175.72,-110.21"/>
<polygon fill="red" stroke="red" stroke-width="0.34" points="176.8,-113.55 184.74,-106.54 174.16,-107.07 176.8,-113.55"/>
<text text-anchor="middle" x="145.48" y="-138.05" font-family="Times,serif" font-size="14.00">&#45;1.195</text>
</g>
<!-- &#45;3 -->
<g id="node3" class="node">
<title>&#45;3</title>
<polygon fill="lightgray" stroke="black" points="283.6,-187.85 260.1,-187.85 260.1,-169.35 283.6,-169.35 283.6,-187.85"/>
<text text-anchor="middle" x="271.85" y="-175.3" font-family="Times,serif" font-size="9.00">&#45;3</text>
</g>
<!-- &#45;3&#45;&gt;15 -->
<g id="edge5" class="edge">
<title>&#45;3&#45;&gt;15</title>
<path fill="none" stroke="red" stroke-width="0.3" d="M261.52,-169.03C247.96,-157.93 224.72,-139.44 214.85,-134.85 175.01,-116.28 124.42,-107.23 93.62,-103.15"/>
<polygon fill="red" stroke="red" stroke-width="0.3" points="94.41,-99.72 84.06,-101.96 93.55,-106.66 94.41,-99.72"/>
<text text-anchor="middle" x="255.48" y="-138.05" font-family="Times,serif" font-size="14.00">&#45;1.013</text>
</g>
<!-- &#45;3&#45;&gt;16 -->
<g id="edge6" class="edge">
<title>&#45;3&#45;&gt;16</title>
<path fill="none" stroke="green" stroke-width="0.31" d="M276.51,-169.01C280.79,-159.84 285.55,-145.21 278.85,-134.85 268.04,-118.12 247.03,-109.38 229.69,-104.86"/>
<polygon fill="green" stroke="green" stroke-width="0.31" points="230.47,-101.45 219.94,-102.67 228.93,-108.28 230.47,-101.45"/>
<text text-anchor="middle" x="297.23" y="-138.05" font-family="Times,serif" font-size="14.00">1.061</text>
</g>
<!-- 0 -->
<g id="node4" class="node">
<title>0</title>
<ellipse fill="lightblue" stroke="black" cx="72.85" cy="-14.5" rx="14.5" ry="14.5"/>
<text text-anchor="middle" x="72.85" y="-11.2" font-family="Times,serif" font-size="9.00">0</text>
</g>
<!-- 1 -->
<g id="node5" class="node">
<title>1</title>
<ellipse fill="lightblue" stroke="black" cx="22.85" cy="-14.5" rx="14.5" ry="14.5"/>
<text text-anchor="middle" x="22.85" y="-11.2" font-family="Times,serif" font-size="9.00">1</text>
</g>
<!-- 2 -->
<g id="node6" class="node">
<title>2</title>
<ellipse fill="lightblue" stroke="black" cx="208.85" cy="-14.5" rx="14.5" ry="14.5"/>
<text text-anchor="middle" x="208.85" y="-11.2" font-family="Times,serif" font-size="9.00">2</text>
</g>
<!-- 15&#45;&gt;0 -->
<g id="edge7" class="edge">
<title>15&#45;&gt;0</title>
<path fill="none" stroke="red" stroke-width="0.21" d="M53.41,-86.6C43.98,-76.36 33.61,-60.93 39.6,-46.99 42.52,-40.22 47.68,-34.22 53.08,-29.32"/>
<polygon fill="red" stroke="red" stroke-width="0.21" points="55.11,-32.18 60.69,-23.18 50.71,-26.74 55.11,-32.18"/>
<text text-anchor="middle" x="57.48" y="-50.19" font-family="Times,serif" font-size="14.00">&#45;0.545</text>
</g>
<!-- 15&#45;&gt;1 -->
<g id="edge8" class="edge">
<title>15&#45;&gt;1</title>
<path fill="none" stroke="green" stroke-width="0.49" d="M48.54,-93.9C33.57,-89.2 12.84,-80 3.1,-63.49 -2.27,-54.39 1.43,-43.56 7.01,-34.49"/>
<polygon fill="green" stroke="green" stroke-width="0.49" points="9.81,-36.59 12.78,-26.42 4.11,-32.52 9.81,-36.59"/>
<text text-anchor="middle" x="19.23" y="-50.19" font-family="Times,serif" font-size="14.00">1.935</text>
</g>
<!-- 15&#45;&gt;2 -->
<g id="edge9" class="edge">
<title>15&#45;&gt;2</title>
<path fill="none" stroke="green" stroke-width="0.27" d="M81.87,-91.16C95.82,-84.76 116.34,-74.62 132.85,-63.49 142.2,-57.19 142.85,-53.42 152.1,-46.99 163.01,-39.41 175.91,-32.13 186.65,-26.48"/>
<polygon fill="green" stroke="green" stroke-width="0.27" points="188.12,-29.66 195.42,-21.98 184.93,-23.43 188.12,-29.66"/>
<text text-anchor="middle" x="167.23" y="-50.19" font-family="Times,serif" font-size="14.00">0.858</text>
</g>
<!-- 16&#45;&gt;0 -->
<g id="edge10" class="edge">
<title>16&#45;&gt;0</title>
<path fill="none" stroke="green" stroke-width="0.11" d="M201.03,-81.29C199.61,-70.13 195.96,-55.96 186.85,-46.99 163.04,-23.55 123.43,-17.18 97.73,-15.66"/>
<polygon fill="green" stroke="green" stroke-width="0.11" points="97.95,-12.16 87.83,-15.27 97.68,-19.16 97.95,-12.16"/>
<text text-anchor="middle" x="211.23" y="-50.19" font-family="Times,serif" font-size="14.00">0.053</text>
</g>
<!-- 16&#45;&gt;1 -->
<g id="edge11" class="edge">
<title>16&#45;&gt;1</title>
<path fill="none" stroke="red" stroke-width="0.27" d="M184.46,-94.91C162.3,-90.25 123.3,-80.33 93.6,-63.49 83.95,-58.02 83.8,-53.56 74.85,-46.99 65.15,-39.87 53.78,-32.85 44.15,-27.25"/>
<polygon fill="red" stroke="red" stroke-width="0.27" points="46,-24.27 35.58,-22.37 42.54,-30.36 46,-24.27"/>
<text text-anchor="middle" x="111.48" y="-50.19" font-family="Times,serif" font-size="14.00">&#45;0.842</text>
</g>
<!-- 16&#45;&gt;2 -->
<g id="edge12" class="edge">
<title>16&#45;&gt;2</title>
<path fill="none" stroke="red" stroke-width="0.39" d="M216.99,-89.32C225.74,-83.28 235.95,-74.4 240.85,-63.49 243.86,-56.8 243.69,-53.76 240.85,-46.99 238.17,-40.57 233.46,-34.8 228.48,-30.01"/>
<polygon fill="red" stroke="red" stroke-width="0.39" points="230.98,-27.55 221.11,-23.71 226.43,-32.87 230.98,-27.55"/>
<text text-anchor="middle" x="260.48" y="-50.19" font-family="Times,serif" font-size="14.00">&#45;1.463</text>
</g>
</g>
</svg>
